<svg xmlns="http://www.w3.org/2000/svg" version="1.1" xmlns:xlink="http://www.w3.org/1999/xlink" xmlns:svgjs="http://svgjs.dev/svgjs" viewBox="0 0 800 400"><path d="M4.932735443115234,386.5470886230469C17.63826560974121,325.85949452718097,61.13602129618327,25.560536702473957,81.1659164428711,22.421524047851562C101.19581158955891,19.282511393229168,106.12854894002278,368.01196638743085,125.11210632324219,367.7130126953125C144.09566370646158,367.41405900319415,173.99102783203125,21.674142837524414,195.0672607421875,20.6278018951416C216.14349365234375,19.58146095275879,230.1943155924479,360.0896755854289,251.5695037841797,361.4349670410156C272.94469197591144,362.78025849660236,303.73692576090497,28.40059534708659,323.3183898925781,28.69955062866211C342.8998540242513,28.99850591023763,350.2242075602214,363.82660579681396,369.05828857421875,363.22869873046875C387.8923695882161,362.63079166412354,416.1435038248698,24.8131529490153,436.3228759765625,25.11210823059082C456.5022481282552,25.41106351216634,468.60986328125,362.33184782663983,490.134521484375,365.0224304199219C511.6591796875,367.7130130132039,546.1883138020834,40.80717341105143,565.4708251953125,41.2556037902832C584.7533365885416,41.704034169514976,579.3721822102865,368.60987345377606,605.82958984375,367.7130126953125C632.2869974772135,366.81615193684894,700.5979309082031,33.78176244099935,724.2152709960938,35.87443923950195C747.8326110839844,37.967116038004555,737.5186869303385,354.70853487650555,747.5336303710938,380.2690734863281C757.548573811849,405.8296120961507,778.1763814290365,221.07623799641928,784.304931640625,189.2376708984375" fill="none" stroke-width="10" stroke="url(&quot;#SvgjsLinearGradient1004&quot;)" stroke-linecap="round"></path><defs><linearGradient id="SvgjsLinearGradient1004"><stop stop-color="hsl(0, 58%, 55%)" offset="0"></stop><stop stop-color="hsl(0, 40%, 73%)" offset="1"></stop></linearGradient></defs></svg>